<svg xmlns="http://www.w3.org/2000/svg" version="1.1" xmlns:xlink="http://www.w3.org/1999/xlink" xmlns:svgjs="http://svgjs.dev/svgjs" width="1440" height="560" preserveAspectRatio="none" viewBox="0 0 1440 560"><g mask="url(&quot;#SvgjsMask1061&quot;)" fill="none"><rect width="1440" height="560" x="0" y="0" fill="#0e2a47"></rect><path d="M0,447.552C78.781,423.257,141.607,372.83,210.612,327.719C278.998,283.013,360.309,253.697,403.051,184.067C448.206,110.506,460.499,20.922,451.643,-64.937C442.561,-152.983,400.689,-231.209,352.553,-305.489C297.877,-389.861,246.798,-485.74,153.951,-524.308C58.048,-564.145,-53.978,-551.39,-151.133,-514.713C-244.53,-479.454,-312.61,-402.856,-374.745,-324.719C-434.692,-249.334,-491.651,-167.963,-502.936,-72.311C-514.085,22.187,-466.792,109.15,-436.577,199.378C-402.559,300.964,-407.862,436.785,-314.728,489.727C-220.807,543.117,-103.237,479.389,0,447.552" fill="#091b2e"></path><path d="M1440 879.8969999999999C1501.665 872.26 1559.237 858.098 1617.217 835.755 1689.289 807.981 1775.671 796.814 1819.904 733.496 1865.633 668.0360000000001 1866.411 579.265 1851.15 500.886 1836.289 424.563 1801.192 345.999 1736.157 303.379 1674.669 263.083 1590.508 308.126 1520.905 284.462 1446.242 259.078 1402.272 160.663 1323.449 163.06400000000002 1245.1390000000001 165.449 1168.502 225.11700000000002 1135.557 296.199 1103.446 365.48 1155.5810000000001 443.177 1158.251 519.491 1160.314 578.461 1137.691 634.873 1149.43 692.6990000000001 1163.502 762.019 1172.673 845.136 1232.135 883.444 1291.595 921.751 1369.805 888.5899999999999 1440 879.8969999999999" fill="#133960"></path></g><defs><mask id="SvgjsMask1061"><rect width="1440" height="560" fill="#ffffff"></rect></mask></defs></svg>